<?xml version="1.0" standalone="no"?>
<!DOCTYPE svg PUBLIC "-//W3C//DTD SVG 20010904//EN"
 "http://www.w3.org/TR/2001/REC-SVG-20010904/DTD/svg10.dtd">
<svg version="1.0" xmlns="http://www.w3.org/2000/svg"
 width="512.000000pt" height="512.000000pt" viewBox="0 0 512.000000 512.000000"
 preserveAspectRatio="xMidYMid meet">

<g transform="translate(0.000000,512.000000) scale(0.100000,-0.100000)"
fill="#000000" stroke="none">
<path d="M0 2560 l0 -2560 2560 0 2560 0 0 2560 0 2560 -2560 0 -2560 0 0
-2560z m2370 2252 c461 -84 692 -317 754 -757 27 -194 36 -279 36 -338 0 -68
-27 -209 -42 -218 -7 -4 -8 -28 -4 -65 17 -146 18 -181 5 -224 -7 -25 -11 -51
-10 -59 1 -8 -2 -10 -9 -6 -9 5 -10 1 -6 -13 5 -15 1 -27 -13 -38 -10 -9 -17
-23 -14 -29 2 -7 -1 -16 -6 -20 -6 -3 -9 -10 -6 -15 3 -4 -2 -13 -10 -20 -8
-7 -15 -20 -15 -29 0 -13 -2 -13 -9 -2 -6 9 -11 10 -15 2 -4 -6 -1 -13 6 -16
17 -7 17 -111 0 -141 -6 -12 -8 -24 -5 -28 3 -3 1 -6 -6 -6 -7 0 -9 -5 -5 -12
5 -8 2 -9 -9 -5 -12 5 -17 1 -17 -13 0 -11 -4 -20 -10 -20 -5 0 -10 -6 -10
-14 0 -8 -5 -27 -12 -43 -6 -15 -10 -36 -9 -45 1 -10 -3 -18 -9 -18 -6 0 -8
-5 -5 -10 3 -6 0 -13 -9 -16 -9 -3 -12 -12 -9 -21 4 -10 2 -14 -4 -10 -12 8
-23 -14 -23 -44 0 -10 -4 -19 -8 -19 -4 0 -8 -8 -9 -17 0 -10 -6 -44 -12 -77
-6 -32 -8 -77 -5 -100 6 -41 8 -43 62 -62 69 -23 112 -65 134 -129 86 -256
176 -474 196 -475 6 0 12 5 12 10 0 6 6 10 13 10 33 0 161 155 218 265 18 33
39 71 48 84 19 30 23 51 8 51 -5 0 -7 3 -4 6 4 4 13 1 21 -5 11 -9 22 -9 49 3
31 12 38 24 71 108 l37 94 -31 60 c-35 68 -34 96 7 140 34 37 25 81 -38 181
-27 43 -60 112 -74 154 -21 68 -23 84 -14 145 13 92 17 104 48 130 15 13 33
41 41 62 7 22 27 57 46 78 18 21 30 42 28 46 -3 4 0 8 6 8 6 0 14 8 17 18 4 9
28 38 55 64 l47 48 80 -3 c69 -2 84 -6 106 -27 14 -13 28 -20 32 -17 3 4 1 42
-6 85 -16 103 2 178 57 232 31 31 45 37 85 39 69 3 111 -14 155 -64 l38 -44
40 39 c40 39 41 39 113 37 70 -3 75 -4 107 -39 45 -49 58 -104 50 -209 l-6
-87 33 -6 c89 -17 131 -142 92 -272 -8 -27 -15 -50 -15 -51 0 -2 0 -10 0 -19
0 -9 -5 -12 -12 -8 -6 4 -8 3 -4 -4 3 -6 1 -22 -6 -37 -7 -17 -14 -22 -19 -14
-9 15 -74 -83 -83 -128 -4 -17 -14 -37 -22 -43 -7 -7 -12 -16 -9 -20 2 -4 -5
-17 -16 -29 -12 -12 -22 -28 -23 -34 -1 -7 -9 -34 -18 -62 -9 -27 -19 -68 -23
-90 -4 -22 -10 -44 -13 -50 -4 -5 -8 -18 -9 -29 -2 -10 -14 -27 -28 -38 -14
-11 -30 -29 -36 -41 -9 -20 -9 -21 4 -4 9 10 18 14 21 9 8 -14 -21 -35 -38
-29 -8 3 -24 -5 -36 -18 -12 -13 -36 -29 -52 -36 -29 -12 -30 -14 -24 -58 6
-51 -13 -132 -34 -139 -8 -3 -10 0 -5 8 6 10 4 12 -7 8 -9 -4 -37 -10 -62 -13
-39 -6 -49 -12 -57 -34 -7 -18 -7 -27 1 -29 7 -3 3 -10 -9 -19 -12 -8 -21 -21
-21 -29 0 -8 -4 -13 -8 -10 -4 2 -19 -14 -33 -38 -33 -53 -27 -68 43 -128 39
-33 65 -68 93 -122 34 -67 38 -84 39 -148 0 -40 -3 -86 -7 -102 -12 -44 -40
-93 -45 -78 -2 7 2 21 9 31 8 9 -3 -1 -23 -24 -21 -22 -38 -45 -38 -52 0 -6
-3 -13 -7 -15 -9 -4 -123 -155 -123 -162 0 -9 -86 -85 -197 -175 -119 -96
-169 -156 -150 -181 6 -8 8 -12 3 -8 -7 6 -26 -12 -66 -67 -14 -19 -14 -19 4
-5 19 15 19 14 2 -17 -9 -18 -19 -33 -22 -33 -3 0 -2 6 1 13 4 6 -9 -6 -28
-28 -19 -22 -33 -44 -29 -50 3 -5 1 -7 -3 -2 -14 12 -45 -24 -40 -47 11 -49
-98 -113 -208 -122 -34 -3 -87 -10 -117 -16 -30 -6 -125 -12 -210 -14 -685
-11 -1218 -25 -1285 -33 -152 -18 -451 -11 -865 20 -268 21 -400 69 -415 153
-4 17 -7 139 -9 271 -2 151 -9 287 -19 365 -27 203 -40 383 -34 458 6 72 49
215 73 243 8 9 11 19 7 23 -5 4 -3 6 2 5 17 -5 56 12 50 22 -3 5 1 6 10 3 19
-8 135 49 165 81 21 22 21 27 9 73 -11 44 -10 56 5 94 9 25 26 55 39 69 12 13
21 27 19 31 -1 5 1 7 5 6 17 -4 53 14 47 24 -4 7 -2 8 5 4 25 -16 121 55 181
133 32 42 68 88 80 103 11 15 30 28 43 30 15 2 23 11 25 28 2 14 19 41 38 61
30 31 33 37 20 48 -8 7 -20 28 -26 47 -14 42 -2 84 40 142 l29 40 -47 18 c-68
26 -149 71 -210 117 -192 146 -270 467 -206 844 48 284 196 531 409 684 44 32
88 65 98 74 9 8 18 14 20 14 9 -6 47 15 47 27 0 8 5 14 11 14 5 0 7 -5 4 -11
-11 -16 66 19 82 39 9 10 11 11 7 2 -7 -12 -5 -13 8 -3 8 7 17 10 20 8 3 -3
17 -1 32 5 18 6 25 14 20 22 -6 9 -3 9 9 -1 14 -11 18 -11 22 0 3 9 22 14 49
15 24 0 52 4 62 9 11 4 28 9 39 10 11 1 27 4 35 8 27 11 72 13 290 11 171 -1
239 -5 330 -22z m-950 -72 c0 -5 -8 -10 -17 -10 -15 0 -16 2 -3 10 19 12 20
12 20 0z m-89 -43 c-10 -9 -11 -8 -5 6 3 10 9 15 12 12 3 -3 0 -11 -7 -18z
m-351 -257 c0 -5 -4 -10 -10 -10 -5 0 -10 5 -10 10 0 6 5 10 10 10 6 0 10 -4
10 -10z m-54 -48 c-17 -16 -18 -16 -5 5 7 12 15 20 18 17 3 -2 -3 -12 -13 -22z
m-192 -1104 c-3 -4 0 -8 5 -8 6 0 10 -3 9 -7 -1 -5 3 -18 10 -30 7 -13 9 -23
5 -23 -4 0 -1 -5 7 -10 13 -8 13 -10 -1 -10 -10 0 -23 16 -33 40 -18 45 -23
96 -7 70 6 -8 7 -18 5 -22z m91 -168 c3 -11 11 -20 16 -20 5 0 9 -5 9 -11 0
-7 8 -18 17 -25 10 -7 14 -16 10 -21 -10 -10 -77 61 -77 82 0 22 18 18 25 -5z
m3922 -225 c-9 -7 -13 -16 -9 -20 4 -5 1 -5 -5 -1 -10 5 -10 11 -1 26 7 10 16
16 22 13 5 -3 2 -11 -7 -18z m-1206 -227 c1 -7 1 -16 0 -20 0 -5 4 -8 9 -8 6
0 10 -5 10 -11 0 -6 13 -28 29 -48 42 -53 47 -82 22 -133 -11 -24 -22 -52 -23
-63 -4 -29 22 -135 32 -135 14 0 1 -57 -28 -122 -36 -81 -45 -62 -12 23 l28
72 -20 56 c-22 63 -20 137 7 177 23 35 19 53 -30 128 -25 38 -45 75 -45 83 0
17 20 17 21 1z m-2524 -150 c-3 -8 -6 -5 -6 6 -1 11 2 17 5 13 3 -3 4 -12 1
-19z m3453 -203 c-7 -8 -17 -15 -22 -15 -6 0 -5 7 2 15 7 8 17 15 22 15 6 0 5
-7 -2 -15z m-67 -42 c-14 -41 -43 -58 -43 -26 0 9 3 13 7 10 3 -4 12 2 20 13
17 25 24 26 16 3z m37 13 c0 -3 -4 -8 -10 -11 -5 -3 -10 -1 -10 4 0 6 5 11 10
11 6 0 10 -2 10 -4z m-3740 -40 c0 -3 -4 -8 -10 -11 -5 -3 -10 -1 -10 4 0 6 5
11 10 11 6 0 10 -2 10 -4z m-125 -296 c-3 -5 -12 -10 -18 -10 -7 0 -6 4 3 10
19 12 23 12 15 0z m3565 -24 c0 -2 -7 -9 -15 -16 -13 -11 -14 -10 -9 4 5 14
24 23 24 12z m-3730 -66 c0 -5 -4 -10 -10 -10 -5 0 -10 5 -10 10 0 6 5 10 10
10 6 0 10 -4 10 -10z m3825 -519 c3 -5 1 -12 -5 -16 -5 -3 -10 1 -10 9 0 18 6
21 15 7z m-89 -115 c-3 -20 -57 -96 -68 -96 -13 0 11 40 28 47 7 3 11 9 8 14
-3 5 -1 9 4 9 5 0 12 9 15 20 6 23 16 27 13 6z m-106 -136 c0 -5 -5 -10 -11
-10 -5 0 -7 5 -4 10 3 6 8 10 11 10 2 0 4 -4 4 -10z m-40 -40 c0 -5 -5 -10
-11 -10 -5 0 -7 5 -4 10 3 6 8 10 11 10 2 0 4 -4 4 -10z m-60 -75 c-12 -13
-28 -21 -33 -18 -7 4 -6 8 3 11 8 3 21 11 28 19 24 24 26 14 2 -12z m-3573
-82 c-3 -10 -5 -4 -5 12 0 17 2 24 5 18 2 -7 2 -21 0 -30z m3503 27 c0 -5 -2
-10 -4 -10 -3 0 -8 5 -11 10 -3 6 -1 10 4 10 6 0 11 -4 11 -10z m-37 -28 c-10
-10 -20 -17 -22 -16 -6 5 20 34 30 34 5 0 1 -8 -8 -18z m-47 -41 c-17 -19 -52
-18 -40 0 3 5 9 7 14 4 4 -3 13 2 20 10 7 9 15 13 18 10 3 -3 -3 -14 -12 -24z
m-168 -240 c-7 -12 -16 -21 -21 -21 -8 0 0 17 18 36 16 18 18 8 3 -15z m-3251
-43 c-3 -7 -5 -2 -5 12 0 14 2 19 5 13 2 -7 2 -19 0 -25z m7 -79 c2 -13 5 -25
7 -26 1 -2 2 -7 3 -11 2 -14 30 -38 64 -56 18 -9 32 -20 32 -24 0 -7 67 -23
160 -38 48 -7 51 -14 6 -14 -54 0 -153 27 -209 58 -53 29 -77 64 -77 113 0 36
7 35 14 -2z m3130 -34 c-4 -8 -11 -15 -16 -15 -6 0 -5 6 2 15 7 8 14 15 16 15
2 0 1 -7 -2 -15z m-41 -47 c-13 -12 -26 -18 -30 -14 -4 4 1 14 11 22 31 22 43
17 19 -8z m-590 -85 c-7 -2 -19 -2 -25 0 -7 3 -2 5 12 5 14 0 19 -2 13 -5z
m110 0 c-13 -2 -33 -2 -45 0 -13 2 -3 4 22 4 25 0 35 -2 23 -4z"/>
<path d="M1938 4785 c-2 -1 -40 -5 -86 -9 -46 -3 -130 -17 -187 -31 -395 -93
-673 -321 -790 -648 -55 -153 -69 -247 -68 -447 0 -160 3 -183 27 -265 37
-121 69 -179 141 -250 65 -65 224 -155 274 -155 15 0 31 -4 36 -9 6 -5 24 -11
40 -13 40 -4 36 -18 -11 -44 -50 -27 -104 -97 -104 -133 0 -46 30 -65 94 -58
62 6 75 -6 53 -51 -11 -24 -19 -27 -69 -30 -49 -3 -60 -7 -83 -33 -14 -18 -25
-43 -25 -60 0 -24 -4 -29 -24 -29 -18 0 -39 -18 -80 -67 -120 -146 -133 -158
-220 -206 -122 -68 -153 -127 -106 -204 l19 -32 -60 -55 c-38 -34 -86 -65
-127 -82 -86 -36 -107 -55 -133 -123 -39 -105 -37 -215 12 -651 14 -132 18
-218 15 -350 -6 -221 -1 -242 62 -270 66 -30 144 -48 237 -55 44 -3 112 -10
151 -16 39 -5 98 -9 130 -9 32 1 190 -1 349 -3 205 -4 319 -1 390 8 68 9 176
12 335 9 129 -2 331 1 450 6 118 5 289 11 379 12 90 1 185 5 210 10 25 4 84
12 130 17 100 12 154 42 178 99 8 20 34 57 58 82 24 25 56 70 73 100 66 124
100 166 199 245 149 120 198 170 287 292 44 62 98 136 119 165 35 48 37 55 31
102 -9 72 -68 178 -126 227 -26 22 -59 55 -73 74 l-26 33 54 89 c30 48 64 106
75 129 20 38 24 41 73 47 28 4 57 11 65 18 8 6 14 37 16 77 l3 66 55 38 c103
70 136 124 169 276 22 99 67 194 146 307 74 106 99 163 99 232 2 123 -78 162
-169 82 l-35 -31 29 62 c60 127 65 263 11 323 -24 27 -35 32 -74 32 -36 0 -51
-6 -77 -30 -38 -36 -65 -93 -74 -157 -8 -55 -25 -54 -25 1 0 58 -28 138 -60
175 -54 61 -140 55 -181 -11 -25 -40 -29 -92 -15 -215 5 -42 6 -92 2 -113 l-7
-36 -55 50 c-61 56 -103 70 -158 51 -50 -16 -78 -42 -141 -124 -59 -79 -78
-117 -69 -141 4 -9 0 -15 -8 -15 -31 0 -59 -46 -69 -114 -9 -58 -8 -74 11
-134 12 -37 45 -102 73 -146 45 -70 52 -86 55 -143 4 -59 2 -65 -23 -89 -33
-30 -29 -60 15 -115 l29 -36 -40 -99 c-53 -134 -56 -138 -99 -163 -47 -26 -83
-67 -115 -132 -39 -76 -109 -171 -167 -224 -45 -42 -136 -112 -159 -123 -4 -1
-9 14 -11 36 -3 21 -18 67 -33 102 -35 84 -76 190 -120 315 -20 55 -42 114
-50 132 -16 35 -70 68 -132 81 -37 8 -38 9 -45 62 -9 60 -2 173 14 234 10 39
44 121 79 187 10 20 19 45 19 56 0 10 5 24 11 30 10 10 16 32 18 61 1 6 8 12
16 12 41 0 29 88 -21 157 l-24 31 40 -5 c46 -6 70 8 70 44 0 13 13 49 29 81
39 78 45 140 24 230 l-17 73 27 82 c14 45 29 102 33 126 8 48 -8 211 -37 392
-73 456 -335 671 -877 719 -104 9 -246 12 -254 5z m362 -90 c234 -32 381 -95
506 -220 149 -148 189 -254 250 -659 l6 -39 -32 37 c-59 67 -110 81 -162 45
-36 -26 -45 -19 -61 45 -14 55 -31 61 -35 12 -5 -51 21 -101 66 -130 50 -31
60 -46 32 -46 -12 0 -30 -5 -41 -10 -17 -9 -19 -7 -19 18 0 17 -12 45 -30 67
-16 21 -30 44 -30 51 0 16 -39 29 -52 16 -5 -5 -20 -36 -33 -68 -30 -73 -32
-64 -4 28 26 86 22 142 -17 206 -53 87 -160 118 -297 88 -188 -42 -259 -145
-211 -307 12 -41 28 -66 68 -105 67 -65 121 -84 236 -84 104 0 146 13 169 51
18 29 18 28 13 -72 -4 -76 -2 -103 8 -109 11 -7 10 -23 -2 -86 -18 -91 -11
-127 33 -149 35 -19 43 -19 84 1 25 11 38 13 53 5 17 -9 19 -18 14 -81 -5 -79
11 -135 60 -207 l28 -42 -69 29 c-39 17 -78 30 -88 31 -14 0 -14 2 5 9 27 11
28 25 3 76 -10 21 -22 54 -26 72 -8 37 -40 45 -50 11 -11 -33 4 -105 28 -135
l21 -27 -33 6 c-19 4 -42 7 -53 7 -12 0 -16 4 -12 11 7 12 6 170 -2 178 -7 8
-28 -18 -41 -52 -12 -30 -13 -27 -7 28 7 72 7 65 5 93 -1 31 -29 28 -42 -5
-17 -44 -51 -215 -45 -229 4 -11 -5 -14 -36 -14 -35 0 -39 2 -27 13 23 18 47
93 54 165 7 70 1 102 -21 102 -8 0 -14 -1 -14 -3 0 -54 -49 -197 -68 -197 -35
1 -58 115 -46 228 8 78 -4 105 -58 126 -44 18 -163 21 -204 6 -54 -21 -114 47
-114 129 0 37 39 86 93 118 57 32 68 54 54 103 -5 19 -7 69 -5 112 4 69 8 80
36 113 33 37 35 43 32 110 -2 61 -17 98 -53 132 -31 29 -36 31 -149 36 -100 5
-120 4 -140 -11 -13 -9 -32 -22 -43 -28 -42 -23 -29 -34 34 -28 135 15 216
-61 167 -154 -35 -67 -203 -194 -349 -266 -96 -47 -124 -67 -199 -139 -93 -92
-125 -106 -207 -92 -139 23 -215 211 -166 409 23 89 106 252 168 326 82 99
181 168 380 265 170 82 221 93 417 94 91 0 212 -6 270 -14z m1948 -1118 c38
-40 51 -90 58 -223 6 -122 5 -134 -17 -192 -13 -34 -28 -62 -32 -62 -4 0 -3 8
2 18 19 36 24 222 7 316 -18 103 -34 132 -77 141 -23 5 -28 9 -18 16 24 15 55
10 77 -14z m327 -27 c23 -45 18 -110 -16 -207 -31 -88 -78 -187 -79 -168 0 6
14 51 31 100 61 182 63 191 50 235 -8 28 -20 44 -37 50 -32 13 -30 20 6 20 23
0 33 -7 45 -30z m-1576 -200 c13 0 25 -9 31 -24 11 -29 -26 -126 -61 -162 -24
-24 -83 -35 -107 -20 -17 10 -15 88 3 122 8 16 20 55 27 86 l12 57 37 -30 c20
-16 46 -29 58 -29z m-1049 -111 c-49 -145 -52 -215 -10 -271 l23 -32 -29 21
c-52 38 -92 87 -105 130 -17 61 7 117 90 208 36 40 67 72 69 70 2 -1 -16 -58
-38 -126z m2054 8 c57 -61 95 -114 102 -143 4 -16 14 -37 22 -46 19 -22 65
-23 82 -3 18 22 27 19 65 -18 62 -60 115 -73 115 -29 0 10 9 27 21 38 20 18
20 18 13 -11 -4 -17 -11 -38 -16 -48 -5 -9 -5 -23 -1 -30 4 -6 15 -32 23 -56
21 -61 40 -71 87 -46 29 16 51 44 104 137 68 120 81 159 67 198 -10 28 -1 45
18 29 29 -24 16 -86 -42 -200 -75 -148 -129 -227 -157 -231 -13 -2 -30 -18
-43 -41 l-21 -38 1 47 c1 42 -3 49 -39 80 -27 24 -66 43 -125 60 -47 14 -106
32 -132 40 -26 8 -57 14 -70 15 -13 0 -32 4 -42 8 -18 7 -18 8 3 28 28 26 44
89 29 117 -16 31 -70 86 -85 86 -20 0 -70 -34 -93 -63 -30 -38 -71 -57 -125
-57 -58 0 -58 13 1 87 77 98 111 123 162 123 37 0 49 -5 76 -33z m-1415 -189
c12 -16 11 -18 -13 -18 -23 0 -25 2 -14 20 7 10 13 18 13 17 0 -1 7 -10 14
-19z m1351 -38 c10 -24 9 -38 -4 -77 -9 -27 -23 -59 -31 -70 l-15 -22 -34 22
c-24 16 -36 34 -43 62 -6 22 -14 48 -18 58 -5 11 -3 17 7 17 8 0 34 13 58 29
49 31 60 28 80 -19z m-1742 2 c11 -7 8 -42 -4 -42 -10 0 -54 24 -54 30 0 20
34 27 58 12z m1514 -14 c9 -7 23 -38 33 -68 28 -93 37 -111 51 -106 7 3 17 -2
22 -10 15 -27 126 -94 136 -84 7 7 3 17 -10 30 l-20 21 34 72 35 72 23 -68
c12 -37 32 -81 44 -97 18 -26 21 -41 18 -102 -3 -64 -1 -73 15 -76 11 -2 31 7
45 21 48 44 71 51 191 52 l113 1 -5 -30 c-10 -63 -50 -148 -85 -185 -34 -35
-42 -38 -93 -40 -43 -1 -71 6 -124 30 -37 17 -102 37 -143 45 -73 14 -112 34
-112 59 0 7 7 26 16 44 32 64 -4 139 -100 206 -64 46 -78 65 -102 143 -9 31
-21 52 -30 52 -8 0 -14 4 -14 8 0 24 37 29 62 10z m-1466 -45 c-11 -11 -19 6
-11 24 8 17 8 17 12 0 3 -10 2 -21 -1 -24z m154 19 c0 -23 -19 -42 -42 -42
-20 0 -21 4 -12 38 8 28 54 32 54 4z m73 -43 c-6 -20 -12 -23 -37 -13 -15 6
-14 40 2 68 8 15 40 -36 35 -55z m119 26 c14 -31 14 -37 1 -50 -18 -19 -53
-19 -77 -2 -17 12 -17 16 -2 50 21 51 55 51 78 2z m-284 8 c-2 -10 -11 -19
-21 -21 -16 -3 -17 -1 -7 17 13 25 33 28 28 4z m386 1 c20 -8 21 -63 3 -88 -9
-13 -20 -16 -40 -11 -39 10 -41 19 -12 65 28 44 26 43 49 34z m110 -30 c19 -7
19 -16 6 -66 -10 -36 -11 -36 -43 -25 -17 6 -34 12 -35 14 -12 6 12 60 31 70
12 6 23 11 24 12 1 0 8 -2 17 -5z m-654 -24 c0 -23 15 -27 24 -5 10 27 26 15
26 -20 0 -19 -2 -35 -5 -35 -2 0 -23 7 -45 16 -41 17 -49 31 -28 52 18 18 28
15 28 -8z m-145 0 c3 -6 -1 -7 -9 -4 -18 7 -21 14 -7 14 6 0 13 -4 16 -10z
m863 -58 c-6 -24 -16 -42 -24 -42 -17 0 -17 -3 2 54 20 57 38 48 22 -12z
m-618 8 c0 -16 -4 -30 -8 -30 -5 0 -7 14 -4 30 2 17 6 30 8 30 2 0 4 -13 4
-30z m74 -7 c-8 -46 -7 -45 -26 -38 -16 7 -14 39 5 63 18 23 28 12 21 -25z
m71 6 c9 16 35 13 35 -4 0 -17 -39 -55 -57 -55 -9 0 -13 14 -13 43 1 38 2 40
14 24 9 -12 16 -14 21 -8z m129 -19 c11 0 12 -7 7 -27 -5 -21 -15 -29 -34 -31
-18 -2 -27 1 -27 11 0 8 -3 30 -7 48 l-6 34 26 -18 c14 -9 33 -17 41 -17z m94
-44 c-4 -30 -58 -36 -58 -7 0 40 10 51 36 39 17 -8 24 -18 22 -32z m273 1
c-10 -9 -11 -8 -5 6 3 10 9 15 12 12 3 -3 0 -11 -7 -18z m-205 -3 c-3 -9 -6
-20 -6 -25 0 -5 -8 -9 -19 -9 -14 0 -17 6 -13 25 3 17 11 25 24 25 14 0 18 -5
14 -16z m64 1 c0 -12 -24 -65 -29 -65 -16 0 -18 12 -8 45 6 22 15 31 23 28 8
-3 14 -6 14 -8z m-334 -39 c5 -7 -10 -86 -17 -86 -12 0 -29 44 -29 76 0 22 3
24 23 18 12 -3 22 -7 23 -8z m374 7 c-1 -13 -29 -59 -30 -48 0 21 13 55 21 55
5 0 9 -3 9 -7z m30 -54 c-8 -17 -17 -26 -22 -21 -5 5 -1 23 9 42 20 40 31 22
13 -21z m-314 16 c8 -20 -5 -85 -16 -85 -6 0 -10 23 -10 50 0 48 14 67 26 35z
m364 1 c0 -8 -9 -24 -19 -37 l-19 -24 11 38 c12 37 27 50 27 23z m-263 -30
c-1 -22 3 -31 16 -34 13 -3 17 3 17 28 l0 31 68 -35 c95 -51 99 -61 63 -144
-30 -68 -51 -164 -51 -234 0 -36 -2 -38 -31 -38 -49 0 -122 21 -146 43 -24 22
-53 96 -53 137 0 14 23 62 51 105 45 72 50 85 46 126 -3 33 0 46 9 46 9 0 13
-11 11 -31z m-822 -178 c24 -17 43 -33 41 -36 -2 -2 -25 0 -50 3 -42 7 -46 10
-46 36 0 16 2 29 5 29 2 0 25 -14 50 -32z m2065 -138 c14 -11 33 -20 43 -20
11 0 17 -8 17 -24 0 -22 -3 -23 -37 -19 -35 5 -103 38 -103 50 0 8 33 32 45
32 6 1 21 -8 35 -19z m246 -124 c9 -23 61 -39 109 -34 42 5 45 4 45 -18 0 -21
-5 -24 -37 -24 -57 1 -110 15 -148 41 -30 21 -31 24 -17 36 22 17 41 16 48 -1z
m-246 -26 c11 -6 22 -26 26 -45 7 -37 -7 -70 -94 -228 -45 -80 -50 -86 -64
-70 -29 34 -28 43 5 110 29 57 46 100 92 231 5 15 11 15 35 2z m141 -103 c-21
-34 -51 -86 -67 -114 -26 -48 -44 -66 -44 -45 0 4 23 48 50 97 28 50 56 102
62 117 9 20 15 24 24 17 9 -7 3 -25 -25 -72z m39 -47 c-36 -51 -48 -51 -22 -1
16 33 28 47 33 39 4 -6 -1 -24 -11 -38z m-154 -267 c-18 -33 -21 -26 -6 13 6
15 13 24 16 21 3 -3 -1 -18 -10 -34z m-26 -53 c-6 -11 -15 -18 -21 -14 -6 4
-6 11 2 20 17 21 31 17 19 -6z"/>
<path d="M3869 2987 c-9 -7 -14 -19 -12 -27 12 -43 16 -45 29 -15 23 52 16 68
-17 42z"/>
<path d="M4646 2773 c-6 -14 -5 -15 5 -6 7 7 10 15 7 18 -3 3 -9 -2 -12 -12z"/>
<path d="M4619 2723 c-13 -16 -12 -17 4 -4 9 7 17 15 17 17 0 8 -8 3 -21 -13z"/>
</g>
</svg>
